<svg height="512" viewBox="0 0 512 512" width="512" xmlns="http://www.w3.org/2000/svg"><g id="BULINE"><circle cx="256" cy="256" fill="#df8076" r="256"/></g><g id="Icons"><path d="m381.57 350.29h24a0 0 0 0 1 0 0v60a15 15 0 0 1 -15 15h-8.92a0 0 0 0 1 0 0v-75a0 0 0 0 1 -.08 0z" fill="#375e87"/><path d="m152.31 60.08h239.16a14.07 14.07 0 0 1 14.07 14.07v297.51a14.07 14.07 0 0 1 -14.07 14.07h-239.16a0 0 0 0 1 0 0v-325.65a0 0 0 0 1 0 0z" fill="#43749f"/><path d="m405.54 330v41.69a14.07 14.07 0 0 1 -14.07 14.07h-239.16v-325.68h62.57v219.11a50.77 50.77 0 0 0 50.78 50.81z" fill="#3e6c8b"/><path d="m152.31 60.08v365.24h-22.92a22.93 22.93 0 0 1 -22.93-22.92v-313.15a29.18 29.18 0 0 1 29.18-29.17z" fill="#375e87"/><path d="m129.39 89.25v313.15a22.92 22.92 0 0 0 22.92 22.92h-22.92a22.93 22.93 0 0 1 -22.93-22.92v-313.15a29.18 29.18 0 0 1 29.18-29.17h16.67v.67a29.18 29.18 0 0 0 -22.92 28.5z" fill="#315573"/><path d="m126.26 385.73h255.31a0 0 0 0 1 0 0v39.6a0 0 0 0 1 0 0h-255.31a19.8 19.8 0 0 1 -19.8-19.8 19.8 19.8 0 0 1 19.8-19.8z" fill="#f1f6b6"/><path d="m381.57 385.73v11.11h-230.3a19.79 19.79 0 0 0 -17.79 28.48h-7.22a19.8 19.8 0 0 1 0-39.59z" fill="#d4d6a0"/><path d="m152.31 122.88v29.28s-17.47-6.37-45.85-6.19v-16.31c12.46-4 26.3-7 40.13-7 1.91.04 3.82.11 5.72.22z" fill="#de912f"/><path d="m152.31 293.8v29.3s-17.47-6.38-45.85-6.19v-16.31c12.46-4 26.31-7 40.15-7 1.9.04 3.81.09 5.7.2z" fill="#de912f"/><path d="m325.13 99.15h-92.4a42 42 0 0 1 -42 42v163.47a42 42 0 0 1 42 42h92.4a42 42 0 0 1 42-42v-163.44a42 42 0 0 1 -42-42.03z" fill="#2e4f6c"/><path d="m347.22 181.47a50.06 50.06 0 0 1 -58.46 45.47 1.69 1.69 0 0 1 -.39-3.22 50 50 0 0 0 0-92.13 1.69 1.69 0 0 1 .41-3.22 49.4 49.4 0 0 1 8.57-.74 50 50 0 0 1 49.87 53.84z" fill="#efc32e"/><path d="m298.49 226.94c1.23.21 2.47.38 3.72.49-.61.07-1.21.12-1.82.15a50.31 50.31 0 0 1 -11.63-.64 1.7 1.7 0 0 1 -.39-3.23 50 50 0 0 0 0-92.13 1.69 1.69 0 0 1 .39-3.22 50.6 50.6 0 0 1 8.58-.73c1.65 0 3.26.09 4.87.24-1.25.12-2.49.28-3.71.49a1.69 1.69 0 0 0 -.41 3.22 50 50 0 0 1 0 92.13 1.7 1.7 0 0 0 .4 3.23z" fill="#d0a428"/><g fill="#efc32e"><circle cx="217.96" cy="171.06" r="6.6"/><circle cx="287.35" cy="184.25" r="6.6"/><circle cx="217.96" cy="236.71" r="6.6"/><circle cx="343.53" cy="249.9" r="6.6"/><circle cx="275.62" cy="323.1" r="6.6"/><circle cx="259.99" cy="116.11" r="6.6"/></g><path d="m316.4 257.44a23.37 23.37 0 0 0 -9.54 2 31.91 31.91 0 0 0 -62-7.92 25.4 25.4 0 0 0 -30.85 18.83 17.13 17.13 0 0 0 1.15 34.22h101.24a23.58 23.58 0 1 0 0-47.15z" fill="#9bc4d8"/><path d="m340 281a23.58 23.58 0 0 1 -23.58 23.57h-2.65a23.57 23.57 0 0 0 -25-39.33 31.92 31.92 0 0 0 -31.81-29.34h-.21a31.9 31.9 0 0 1 50.15 23.54 23.57 23.57 0 0 1 33.1 21.56z" fill="#c9e7f2"/><path d="m230.82 405.53v72.67a4.61 4.61 0 0 1 -6.92 4l-19.18-11.1a10.82 10.82 0 0 0 -10.84 0l-19.18 11.1a4.61 4.61 0 0 1 -6.92-4v-72.67z" fill="#d14a74"/><path d="m230.82 405.53v10.85h-20.32a25.55 25.55 0 0 0 -25.5 25.54v34.34l-10.3 5.94a4.62 4.62 0 0 1 -6.92-4v-72.67z" fill="#ad4369"/></g></svg>