<svg height="512pt" viewBox="0 0 512.00009 512" width="512pt" xmlns="http://www.w3.org/2000/svg"><path d="m503.464844 128v332.800781c0 9.386719-7.679688 17.066407-25.597656 17.066407h-187.734376c3.839844 0 0 3.839843 0 8.53125v8.535156c-.011718 4.707031-3.824218 8.519531-8.53125 8.53125h-51.203124c-4.707032-.011719-8.519532-3.824219-8.53125-8.53125v-8.535156c-.015626-4.707032-3.828126-8.519532-8.535157-8.53125h-187.730469c-9.414062-.027344-17.039062-7.652344-17.066406-17.066407v-332.800781c-.011718-2.574219.570313-5.113281 1.703125-7.425781l450.5625-9.640625h25.597657c9.414062.027344 17.039062 7.652344 17.066406 17.066406zm0 0" fill="#6d4122"/><path d="m479.828125 128v332.800781c0 9.386719-7.679687 17.066407-25.597656 17.066407h-187.734375c3.839844 0 0 3.839843 0 8.53125v8.535156c-.011719 4.707031-3.824219 8.519531-8.535156 8.53125h-27.5625c-4.707032-.011719-8.519532-3.824219-8.53125-8.53125v-8.535156c-.015626-4.707032-3.828126-8.519532-8.535157-8.53125h-187.730469c-9.414062-.027344-17.039062-7.652344-17.066406-17.066407v-332.800781c-.011718-2.574219.570313-5.113281 1.703125-7.425781l450.5625-9.640625h1.960938c9.414062.027344 17.039062 7.652344 17.066406 17.066406zm0 0" fill="#91562d"/><path d="m51.199219 392.535156v-211.457031l138.667969-112.8125h32c9.054687 0 17.738281 3.59375 24.136718 9.996094 6.402344 6.402343 10 15.085937 9.996094 24.136719v332.800781zm0 0" fill="#ffdc00"/><path d="m51.199219 392.535156h170.667969c18.851562 0 34.132812 15.28125 34.132812 34.132813v17.066406h-196.265625c-4.714844 0-8.535156-3.820313-8.535156-8.535156zm0 0" fill="#fec108"/><path d="m460.800781 85.332031v307.203125l-204.800781 42.664063v-332.800781c-.003906-9.050782 3.59375-17.734376 9.996094-24.136719 6.402344-6.402344 15.082031-9.996094 24.136718-9.996094h153.601563c9.414063.027344 17.039063 7.652344 17.066406 17.066406zm0 0" fill="#fdd834"/><path d="m437.164062 85.332031v307.203125l-181.164062 37.714844v-327.851562c-.003906-9.050782 3.59375-17.734376 9.996094-24.136719 6.402344-6.402344 15.082031-9.996094 24.136718-9.996094h129.964844c9.414063.027344 17.039063 7.652344 17.066406 17.066406zm0 0" fill="#ffeb3a"/><path d="m460.800781 392.535156v42.664063c0 4.695312-3.839843 8.535156-17.066406 8.535156h-187.734375v-17.066406c0-18.859375 15.273438-34.132813 25.601562-34.132813zm0 0" fill="#fdd834"/><path d="m437.164062 392.535156v42.664063c0 4.695312-3.839843 8.535156-17.066406 8.535156h-164.097656v-17.066406c0-18.859375 15.273438-34.132813 25.601562-34.132813zm0 0" fill="#fdd834"/><path d="m196.265625 102.398438c0 51.84375-42.023437 93.867187-93.867187 93.867187-51.839844 0-93.863282-42.023437-93.863282-93.867187 0-51.839844 42.023438-93.863282 93.863282-93.863282 51.84375 0 93.867187 42.023438 93.867187 93.863282zm0 0" fill="#02a9f4"/><path d="m409.601562 136.535156v256h-85.335937v-256l25.601563-8.535156 17.066406 25.601562 12.800781-19.117187 4.265625-6.484375zm0 0" fill="#c81e1e"/><path d="m385.960938 136.535156v256h-61.695313v-256l25.601563-8.535156h10.496093l19.371094 6.484375zm0 0" fill="#f44335"/><path d="m386.304688 71.425781c-5.660157 3.941407-12.492188 5.835938-19.371094 5.375-6.878906.460938-13.714844-1.433593-19.371094-5.375l11.433594-31.832031c1.269531-3.277344 4.421875-5.441406 7.9375-5.441406s6.667968 2.164062 7.9375 5.441406zm0 0" fill="#607d8b"/><path d="m409.601562 136.535156-25.601562-8.535156-.683594 1.023438-3.582031 5.460937-12.800781 19.117187-11.777344-17.75-5.289062-7.851562-19.371094 6.484375-6.230469 2.050781 2.644531-7.511718 18.773438-52.308594 1.878906-5.289063c2.265625 1.699219 4.804688 3 7.507812 3.839844h.085938c3.058594.859375 6.210938 1.34375 9.386719 1.449219.796875.074218 1.59375.101562 2.390625.085937 6.878906.460938 13.710937-1.433593 19.371094-5.375zm0 0" fill="#dfc49c"/><path d="m385.960938 136.535156-6.226563-2.050781-19.371094-6.484375-5.207031 7.851562-5.289062-7.851562-19.371094 6.484375-3.585938-5.460937 18.773438-52.308594c3.175781-.105469 6.328125-.589844 9.386718-1.449219h.085938c2.707031-.839844 5.246094-2.140625 7.511719-3.839844l1.875 5.289063 18.773437 52.308594zm0 0" fill="#ffe0b2"/><path d="m136.535156 71.082031v73.984375c-.015625 4.707032-3.828125 8.519532-8.535156 8.535156h-51.199219c-4.707031-.015624-8.519531-3.828124-8.535156-8.535156v-73.984375l34.132813-26.964843zm0 0" fill="#ffdc00"/><path d="m324.265625 392.535156h85.335937c9.425782 0 17.066407 7.640625 17.066407 17.066406v17.066407c0 9.425781-7.640625 17.066406-17.066407 17.066406h-85.335937c-9.425781 0-17.066406-7.640625-17.066406-17.066406v-17.066407c0-9.425781 7.640625-17.066406 17.066406-17.066406zm0 0" fill="#707070"/><path d="m324.265625 392.535156h61.695313c9.425781 0 17.070312 7.640625 17.070312 17.066406v17.066407c0 9.425781-7.644531 17.066406-17.070312 17.066406h-61.695313c-9.425781 0-17.066406-7.640625-17.066406-17.066406v-17.066407c0-9.425781 7.640625-17.066406 17.066406-17.066406zm0 0" fill="#9e9e9e"/><path d="m409.601562 443.734375v25.597656c.007813 6.792969-2.6875 13.308594-7.488281 18.113281-4.804687 4.804688-11.320312 7.496094-18.113281 7.488282h-34.132812c-6.792969.007812-13.308594-2.683594-18.113282-7.488282-4.800781-4.804687-7.496094-11.320312-7.488281-18.113281v-25.597656zm0 0" fill="#bb193b"/><path d="m385.960938 443.734375v25.597656c-.007813 14.136719-11.464844 25.589844-25.597657 25.601563h-10.496093c-6.792969.007812-13.308594-2.683594-18.113282-7.488282-4.800781-4.804687-7.496094-11.320312-7.488281-18.113281v-25.597656zm0 0" fill="#ef314c"/><path d="m256 443.734375c-4.710938 0-8.535156-3.820313-8.535156-8.535156v-332.800781c-.011719-14.128907-11.464844-25.582032-25.597656-25.597657h-32c-4.714844 0-8.535157-3.820312-8.535157-8.535156 0-4.710937 3.820313-8.53125 8.535157-8.53125h32c23.550781.027344 42.636718 19.113281 42.667968 42.664063v332.800781c0 4.714843-3.820312 8.535156-8.535156 8.535156zm0 0"/><path d="m51.199219 401.066406c-4.710938 0-8.53125-3.820312-8.53125-8.53125v-211.457031c0-4.714844 3.820312-8.535156 8.53125-8.535156 4.714843 0 8.535156 3.820312 8.535156 8.535156v211.457031c0 4.710938-3.820313 8.53125-8.535156 8.53125zm0 0"/><path d="m256 452.265625h-196.265625c-9.421875-.011719-17.054687-7.644531-17.066406-17.066406v-42.664063c0-4.714844 3.820312-8.535156 8.53125-8.535156h170.667969c23.550781.027344 42.636718 19.113281 42.667968 42.667969v17.066406c0 4.710937-3.820312 8.53125-8.535156 8.53125zm-196.265625-51.199219v34.132813h187.730469v-8.53125c-.011719-14.132813-11.464844-25.585938-25.597656-25.601563zm0 0"/><path d="m256 443.734375c-4.710938 0-8.535156-3.820313-8.535156-8.535156v-332.800781c.03125-23.550782 19.117187-42.636719 42.667968-42.664063h58.625c4.710938 0 8.53125 3.820313 8.53125 8.53125 0 4.714844-3.820312 8.535156-8.53125 8.535156h-58.625c-14.132812.015625-25.582031 11.46875-25.597656 25.597657v332.800781c0 2.265625-.902344 4.433593-2.5 6.035156-1.601562 1.601563-3.773437 2.5-6.035156 2.5zm0 0"/><path d="m460.800781 401.066406c-4.714843 0-8.535156-3.820312-8.535156-8.53125v-307.203125c0-4.710937-3.820313-8.527343-8.53125-8.53125h-58.625c-4.710937 0-8.535156-3.820312-8.535156-8.535156 0-4.710937 3.824219-8.53125 8.535156-8.53125h58.625c14.132813.015625 25.582031 11.46875 25.597656 25.597656v307.203125c0 4.710938-3.820312 8.53125-8.53125 8.53125zm0 0"/><path d="m443.734375 452.265625h-187.734375c-4.710938 0-8.535156-3.820313-8.535156-8.53125v-17.066406c0-22.976563 18.769531-42.667969 34.136718-42.667969h179.199219c4.710938 0 8.53125 3.820312 8.53125 8.535156v42.664063c0 6.375-3.328125 17.066406-25.597656 17.066406zm-179.199219-17.066406h179.199219c2.882813.148437 5.765625-.199219 8.53125-1.023438v-33.109375h-170.664063c-5.09375 0-17.066406 10.808594-17.066406 25.601563zm0 0"/><path d="m281.601562 512h-51.203124c-9.417969-.011719-17.050782-7.644531-17.066407-17.066406v-8.535156h-187.730469c-14.132812-.015626-25.585937-11.464844-25.601562-25.597657v-332.800781c-.0117188-3.898438.882812-7.746094 2.609375-11.242188 2.105469-4.214843 7.234375-5.925781 11.449219-3.816406s5.925781 7.234375 3.816406 11.449219c-.542969 1.125-.816406 2.359375-.808594 3.609375v332.800781c.003906 4.710938 3.820313 8.53125 8.535156 8.53125h187.730469c9.421875.015625 17.054688 7.648438 17.066407 17.066407v8.535156h51.203124v-8.535156c.011719-1.726563.25-3.441407.714844-5.105469-1.15625-2.640625-.902344-5.683594.671875-8.09375 1.578125-2.414063 4.265625-3.867188 7.144531-3.867188h35.671876c4.710937 0 8.53125 3.820313 8.53125 8.535157 0 4.710937-3.820313 8.53125-8.53125 8.53125h-27.136719v8.535156c-.015625 9.421875-7.648438 17.054687-17.066407 17.066406zm0 0"/><path d="m477.867188 486.398438h-69.804688c-4.710938 0-8.53125-3.820313-8.53125-8.53125 0-4.714844 3.820312-8.535157 8.53125-8.535157h69.804688c5.132812 0 17.066406-.832031 17.066406-8.53125v-332.800781c-.003906-4.710938-3.820313-8.53125-8.535156-8.535156h-25.597657c-4.714843 0-8.535156-3.820313-8.535156-8.53125 0-4.714844 3.820313-8.535156 8.535156-8.535156h25.597657c14.132812.015624 25.585937 11.46875 25.601562 25.601562v332.800781c0 12.371094-8.964844 25.597657-34.132812 25.597657zm0 0"/><path d="m256 477.867188c-4.710938 0-8.535156-3.820313-8.535156-8.535157v-25.597656c0-4.714844 3.824218-8.535156 8.535156-8.535156 4.714844 0 8.535156 3.820312 8.535156 8.535156v25.597656c0 4.714844-3.820312 8.535157-8.535156 8.535157zm0 0"/><path d="m102.398438 204.800781c-56.550782 0-102.398438-45.847656-102.398438-102.402343 0-56.550782 45.847656-102.398438 102.398438-102.398438 56.554687 0 102.402343 45.847656 102.402343 102.398438-.0625 56.53125-45.871093 102.339843-102.402343 102.402343zm0-187.734375c-47.125 0-85.332032 38.207032-85.332032 85.332032 0 47.128906 38.207032 85.335937 85.332032 85.335937 47.128906 0 85.335937-38.207031 85.335937-85.335937-.054687-47.105469-38.230469-85.277344-85.335937-85.332032zm0 0"/><path d="m409.601562 401.066406h-85.335937c-4.710937 0-8.53125-3.820312-8.53125-8.53125v-256c-.003906-3.675781 2.347656-6.933594 5.832031-8.09375l25.601563-8.53125c3.648437-1.230468 7.667969.148438 9.796875 3.355469l9.96875 14.953125 9.964844-14.953125c2.128906-3.210937 6.152343-4.589844 9.800781-3.355469l25.601562 8.53125c3.484375 1.160156 5.835938 4.417969 5.832031 8.09375v256c0 4.710938-3.820312 8.53125-8.53125 8.53125zm-76.800781-17.066406h68.265625v-241.316406l-13.582031-4.523438-13.453125 20.171875c-1.667969 2.242188-4.300781 3.5625-7.097656 3.5625s-5.429688-1.320312-7.101563-3.5625l-13.449219-20.175781-13.582031 4.527344zm0 0"/><path d="m409.601562 452.265625h-85.335937c-14.132813-.015625-25.582031-11.46875-25.597656-25.597656v-17.066407c.015625-14.132812 11.464843-25.585937 25.597656-25.601562h85.335937c14.128907.015625 25.582032 11.46875 25.597657 25.601562v17.066407c-.015625 14.128906-11.46875 25.582031-25.597657 25.597656zm-85.335937-51.199219c-4.710937.003906-8.53125 3.820313-8.53125 8.535156v17.066407c0 4.710937 3.820313 8.527343 8.53125 8.53125h85.335937c4.710938-.003907 8.527344-3.820313 8.53125-8.53125v-17.066407c-.003906-4.714843-3.820312-8.53125-8.53125-8.535156zm0 0"/><path d="m384 503.464844h-34.132812c-18.84375-.015625-34.117188-15.289063-34.132813-34.132813v-25.597656c0-4.714844 3.820313-8.535156 8.53125-8.535156h85.335937c4.710938 0 8.53125 3.820312 8.53125 8.535156v25.597656c-.019531 18.84375-15.289062 34.117188-34.132812 34.132813zm-51.199219-51.199219v17.066406c.011719 9.421875 7.644531 17.054688 17.066407 17.066407h34.132812c9.421875-.011719 17.054688-7.644532 17.066406-17.066407v-17.066406zm0 0"/><path d="m409.601562 145.066406c-3.605468 0-6.820312-2.265625-8.035156-5.65625l-34.699218-96.933594-34.566407 96.933594c-1.640625 4.359375-6.476562 6.597656-10.863281 5.027344s-6.703125-6.367188-5.203125-10.777344l34.699219-96.933594c2.472656-6.65625 8.804687-11.082031 15.898437-11.125 7.097657-.042968 13.480469 4.308594 16.035157 10.929688l34.765624 97.128906c.9375 2.613282.542969 5.515625-1.058593 7.785156-1.597657 2.269532-4.199219 3.621094-6.972657 3.621094zm0 0"/><path d="m366.933594 85.332031c-8.8125.46875-17.519532-2.082031-24.683594-7.230469-2.382812-1.902343-3.574219-4.929687-3.121094-7.945312.453125-3.011719 2.476563-5.558594 5.316406-6.671875 2.835938-1.117187 6.054688-.632813 8.4375 1.265625 4.160157 2.710938 9.105469 3.949219 14.050782 3.515625 4.945312.433594 9.890625-.804687 14.050781-3.515625 2.382813-1.898438 5.601563-2.382812 8.4375-1.265625 2.835937 1.113281 4.863281 3.660156 5.316406 6.671875.453125 3.015625-.738281 6.042969-3.121093 7.945312-7.164063 5.148438-15.871094 7.699219-24.683594 7.230469zm0 0"/><path d="m366.933594 290.132812c-4.714844 0-8.535156-3.820312-8.535156-8.53125v-128c0-4.714843 3.820312-8.535156 8.535156-8.535156 4.710937 0 8.53125 3.820313 8.53125 8.535156v128c0 4.710938-3.820313 8.53125-8.53125 8.53125zm0 0"/><path d="m366.933594 401.066406c-4.714844 0-8.535156-3.820312-8.535156-8.53125v-59.734375c0-4.714843 3.820312-8.535156 8.535156-8.535156 4.710937 0 8.53125 3.820313 8.53125 8.535156v59.734375c0 4.710938-3.820313 8.53125-8.53125 8.53125zm0 0"/><path d="m153.589844 93.867188c-1.992188 0-3.925782-.699219-5.460938-1.976563l-45.730468-38.113281-45.730469 38.113281c-3.628907 2.96875-8.964844 2.457031-11.964844-1.140625s-2.539063-8.941406 1.03125-11.976562l51.199219-42.664063c3.167968-2.632813 7.765625-2.632813 10.933594 0l51.199218 42.664063c2.765625 2.300781 3.789063 6.089843 2.5625 9.46875-1.226562 3.382812-4.441406 5.632812-8.039062 5.625zm0 0"/><path d="m128 162.132812h-51.199219c-9.421875-.011718-17.054687-7.644531-17.066406-17.066406v-73.984375c0-4.710937 3.820313-8.53125 8.53125-8.53125 4.714844 0 8.535156 3.820313 8.535156 8.53125v73.984375h51.199219v-73.984375c0-4.710937 3.820312-8.53125 8.535156-8.53125 4.710938 0 8.53125 3.820313 8.53125 8.53125v73.984375c-.011718 9.421875-7.644531 17.054688-17.066406 17.066406zm0 0"/><path d="m102.398438 162.132812c-4.710938 0-8.53125-3.820312-8.53125-8.53125v-25.601562c0-4.710938 3.820312-8.535156 8.53125-8.535156 4.714843 0 8.535156 3.824218 8.535156 8.535156v25.601562c0 4.710938-3.820313 8.53125-8.535156 8.53125zm0 0"/><path d="m221.867188 256h-136.535157c-4.710937 0-8.53125-3.820312-8.53125-8.535156 0-4.710938 3.820313-8.53125 8.53125-8.53125h136.535157c4.710937 0 8.53125 3.820312 8.53125 8.53125 0 4.714844-3.820313 8.535156-8.53125 8.535156zm0 0"/><path d="m221.867188 290.132812h-136.535157c-4.710937 0-8.53125-3.820312-8.53125-8.53125 0-4.714843 3.820313-8.535156 8.53125-8.535156h136.535157c4.710937 0 8.53125 3.820313 8.53125 8.535156 0 4.710938-3.820313 8.53125-8.53125 8.53125zm0 0"/><path d="m221.867188 324.265625h-136.535157c-4.710937 0-8.53125-3.820313-8.53125-8.53125 0-4.714844 3.820313-8.535156 8.53125-8.535156h136.535157c4.710937 0 8.53125 3.820312 8.53125 8.535156 0 4.710937-3.820313 8.53125-8.53125 8.53125zm0 0"/><path d="m221.867188 358.398438h-136.535157c-4.710937 0-8.53125-3.820313-8.53125-8.53125 0-4.714844 3.820313-8.535157 8.53125-8.535157h136.535157c4.710937 0 8.53125 3.820313 8.53125 8.535157 0 4.710937-3.820313 8.53125-8.53125 8.53125zm0 0"/></svg>