<svg id="Capa_1" enable-background="new 0 0 512 512" height="512" viewBox="0 0 512 512" width="512" xmlns="http://www.w3.org/2000/svg"><g><g><g><g><path d="m504.499 355.344v-281.579c0-18.299-14.834-33.132-33.132-33.132h-430.733c-18.298 0-33.132 14.834-33.132 33.132v281.635l248.499 20.549z" fill="#3c58a0"/><path d="m198.018 398h115.966v80.462h-115.966z" fill="#d3dcfb"/><path d="m40.633 358.14v-267.806c0-9.149 7.417-16.567 16.567-16.567h397.601c9.15 0 16.567 7.417 16.567 16.567v267.757l-215.367 17.859z" fill="#9bd8f9"/><path d="m471.366 40.633h-22.998c18.299 0 33.132 14.834 33.132 33.132v281.579l-237.015 19.654 11.515.952 248.498-20.606v-281.579c.001-18.298-14.833-33.132-33.132-33.132z" fill="#2a428c"/><path d="m363.968 471.368h-215.933c-4.418 0-8 3.582-8 8v17.132c0 4.418 3.582 8 8 8h215.933c4.418 0 8-3.582 8-8v-17.132c0-4.418-3.582-8-8-8z" fill="#e9efff"/><path d="m363.968 471.368h-23c4.418 0 8 3.582 8 8v17.132c0 4.418-3.582 8-8 8h23c4.418 0 8-3.582 8-8v-17.132c0-4.418-3.582-8-8-8z" fill="#d3dcfb"/><path d="m454.801 73.768h-23c9.15 0 16.567 7.417 16.567 16.567v269.664l23-1.907v-267.758c0-9.149-7.417-16.566-16.567-16.566z" fill="#73c3f9"/></g></g><path d="m90.334 256v-231.933c0-9.149 7.417-16.567 16.567-16.567h298.2c9.149 0 16.567 7.417 16.567 16.567v231.933l-165.668 33.133z" fill="#4fabf7"/><path d="m405.1 7.5h-23c9.149 0 16.567 7.417 16.567 16.567v236.533l23-4.6v-231.933c0-9.15-7.417-16.567-16.567-16.567z" fill="#1886ea"/><path d="m242.692 154.902c-1.98-1.514-3.258-3.9-3.258-6.585v-99.4c0-4.575 3.708-8.283 8.283-8.283h132.533c4.575 0 8.283 3.709 8.283 8.283v99.4c0 4.575-3.709 8.283-8.283 8.283h-102.812z" fill="#e9efff"/><circle cx="173.167" cy="123.467" fill="#fcad6d" r="33.133"/><path d="m380.25 40.633h-23c4.575 0 8.283 3.709 8.283 8.283v99.4c0 4.575-3.708 8.283-8.283 8.283h23c4.575 0 8.283-3.709 8.283-8.283v-99.4c.001-4.574-3.708-8.283-8.283-8.283z" fill="#d3dcfb"/><path d="m257.85 165.167-19.405 1.048-3.526 9.402c-1.873 4.995-7.912 6.943-12.351 3.984l-19.987-13.364-.001-.002h-.002l-.021-.014-.005.014-58.772-.02c-12.318 9.045-20.314 23.632-20.314 40.086v53.699h99.4v-40.38l7.379 4.919c2.753 1.836 5.957 2.783 9.19 2.783 1.707 0 3.423-.264 5.084-.8 4.812-1.552 8.651-5.217 10.427-9.95l14.943-39.847z" fill="#4ce088"/><path d="m143.781 166.224 19.037 15.229c6.051 4.84 14.648 4.84 20.698 0l19.042-15.234.001-.001c-8.232-6.047-18.395-9.619-29.392-9.619-10.997.001-21.154 3.579-29.386 9.625z" fill="#e9efff"/><path d="m173.167 90.333c-4.044 0-7.917.727-11.5 2.053 12.63 4.675 21.633 16.825 21.633 31.08s-9.004 26.405-21.633 31.08c3.583 1.326 7.456 2.053 11.5 2.053 18.299 0 33.133-14.834 33.133-33.133s-14.834-33.133-33.133-33.133z" fill="#fd995b"/><path d="m257.85 165.167-17.43.941 9.815 1.642-18.344 48.822c-.907 2.416-2.356 4.548-4.193 6.269l2.547 1.698c2.753 1.836 5.957 2.783 9.19 2.783 1.707 0 3.423-.264 5.084-.8 4.812-1.552 8.651-5.217 10.427-9.95l14.943-39.847z" fill="#30c16b"/><path d="m270.103 128.977c-8.563-3.212-18.116 1.128-21.329 9.695l-10.331 27.549 31.447 10.505 9.907-26.419c3.213-8.569-1.128-18.118-9.694-21.33z" fill="#fcad6d"/><path d="m270.103 128.977c-6.179-2.318-12.862-.689-17.318 3.61 4.59 4.448 6.381 11.352 3.993 17.719l-7.345 19.586 20.457 6.833 9.907-26.419c3.213-8.568-1.128-18.117-9.694-21.329z" fill="#fd995b"/><path d="m421.667 358.4h-248.5l-7.833-51.2 7.833-51.2h248.5z" fill="#d3dcfb"/><path d="m90.334 256h82.833v102.4h-82.833z" fill="#ff4155"/><path d="m398.667 256h23v102.4h-23z" fill="#bec8f7"/><ellipse cx="239.434" cy="305.7" fill="#e9efff" rx="16.567" ry="16.567" transform="matrix(.228 -.974 .974 .228 -112.828 469.079)"/><path d="m504.499 355.398h-496.997v16.57c0 18.298 14.834 33.132 33.132 33.132h430.732c18.299 0 33.132-14.834 33.132-33.132v-16.57z" fill="#e9efff"/><path d="m481.501 355.398v16.57c0 18.298-14.834 33.132-33.132 33.132h22.998c18.299 0 33.132-14.834 33.132-33.132v-16.57z" fill="#d3dcfb"/></g><g><path d="m511.999 73.766c0-22.405-18.228-40.633-40.633-40.633h-42.199v-9.066c0-13.271-10.796-24.067-24.067-24.067h-298.199c-13.271 0-24.066 10.796-24.066 24.067v9.066h-42.2c-22.405 0-40.633 18.228-40.633 40.633v298.203c0 22.405 18.228 40.632 40.633 40.632h34.983c4.143 0 7.5-3.358 7.5-7.5s-3.357-7.5-7.5-7.5h-34.984c-14.134 0-25.633-11.499-25.633-25.632v-9.07h481.997v9.07c0 14.134-11.499 25.632-25.633 25.632h-365.747c-4.143 0-7.5 3.358-7.5 7.5s3.357 7.5 7.5 7.5h84.899l.001 51.267h-42.483c-8.547 0-15.5 6.953-15.5 15.5v17.132c0 8.547 6.953 15.5 15.5 15.5h150.949c4.143 0 7.5-3.358 7.5-7.5s-3.357-7.5-7.5-7.5h-150.949c-.275 0-.5-.224-.5-.5v-17.132c0-.276.225-.5.5-.5h215.933c.275 0 .5.224.5.5v17.132c0 .276-.225.5-.5.5h-34.983c-4.143 0-7.5 3.358-7.5 7.5s3.357 7.5 7.5 7.5h34.983c8.547 0 15.5-6.953 15.5-15.5v-17.132c0-8.547-6.953-15.5-15.5-15.5h-42.483v-51.267h149.882c22.405 0 40.633-18.228 40.633-40.632v-298.203zm-246.931 390.102h-18.134v-17.354c0-.432.352-.783.783-.783h16.567c.432 0 .783.351.783.783v17.354zm41.416 0h-26.416v-17.354c0-8.703-7.08-15.783-15.783-15.783h-16.567c-8.703 0-15.783 7.08-15.783 15.783v17.354h-26.416l-.001-51.267h100.967v51.267zm157.384-115.97h-34.701v-266.63h25.635c4.999 0 9.066 4.067 9.066 9.066zm-381.033 0h-34.702v-257.564c0-4.999 4.067-9.066 9.066-9.066h25.635v266.63zm15-84.398h67.833v84.398h-67.833zm49.699-140.033c0-14.134 11.499-25.633 25.634-25.633 14.134 0 25.633 11.499 25.633 25.633s-11.5 25.633-25.634 25.633-25.633-11.499-25.633-25.633zm25.633 40.633c5.596 0 11.027 1.081 16.077 3.166l-10.414 8.332c-3.334 2.668-7.993 2.668-11.327 0l-10.394-8.315c4.954-2.047 10.375-3.183 16.058-3.183zm-29.257 11.832 14.224 11.378c4.426 3.541 9.73 5.312 15.034 5.312s10.608-1.77 15.034-5.312l14.753-11.803 15.454 10.333c4.032 2.688 8.99 3.378 13.601 1.888 4.611-1.487 8.231-4.942 9.933-9.479l.984-2.625 17.21 5.749-12.211 32.564c-.977 2.606-3.058 4.591-5.708 5.446-2.605.843-5.529.437-7.811-1.086l-4.039-2.692v-9.305c0-4.142-3.357-7.5-7.5-7.5s-7.5 3.358-7.5 7.5v13.3c0 .035-.001.07 0 .106v28.794h-84.4v-42.2c-.001-11.917 4.972-22.687 12.942-30.368zm105.771-18.319c.031-.078.061-.157.088-.236l6.027-16.072c.851-2.267 2.533-4.068 4.739-5.07 1.719-.781 3.596-.997 5.413-.653l-.658 2.633c-1.004 4.018 1.439 8.09 5.457 9.095.611.153 1.223.226 1.825.226.085 0 .168-.018.253-.021-.019.053-.031.106-.051.159l-7.368 19.648-17.211-5.749zm36.514-23.083c-.857-1.887-1.956-3.611-3.225-5.183l13.44-53.762c1.004-4.018-1.439-8.09-5.457-9.095-4.02-1.005-8.09 1.438-9.096 5.457l-12.266 49.067c-5.101-1.164-10.415-.639-15.261 1.564-2.821 1.282-5.31 3.067-7.396 5.235v-78.896c0-.432.352-.783.783-.783h132.533c.432 0 .783.352.783.783v99.4c0 .432-.352.784-.783.784h-92.345c.965-4.89.393-9.944-1.71-14.571zm-105.528 128.97h233.499v84.398h-233.499zm-73.766-248.5h298.199c4.999 0 9.066 4.067 9.066 9.067v224.433h-183.798v-15.463c2.864 1.167 5.931 1.784 9.069 1.784 2.513 0 4.998-.391 7.386-1.162 7.031-2.268 12.553-7.536 15.147-14.455l20.664-55.105h97.616c8.703 0 15.783-7.081 15.783-15.784v-99.4c0-8.703-7.08-15.783-15.783-15.783h-132.533c-8.703 0-15.783 7.08-15.783 15.783v99.4c0 2.887.786 5.631 2.204 8.024l-6.241 16.643c-.033.087-.133.354-.492.47-.362.115-.599-.043-.667-.088l-19.914-13.315c-2.604-1.898-5.336-3.553-8.171-4.969 9.229-7.455 15.147-18.854 15.147-31.615 0-22.405-18.227-40.633-40.633-40.633s-40.634 18.228-40.634 40.633c0 12.772 5.928 24.179 15.172 31.634-2.727 1.362-5.328 2.936-7.786 4.699-.353.212-.693.451-1.012.724-13.918 10.443-22.94 27.075-22.94 45.776v42.2h-18.132v-224.431c0-5 4.067-9.067 9.066-9.067zm-91.899 58.766c0-14.134 11.499-25.633 25.633-25.633h42.2v18.135h-25.635c-13.271 0-24.066 10.796-24.066 24.066v257.564h-18.132zm463.866 274.132v-257.564c0-13.27-10.796-24.066-24.066-24.066h-25.635v-18.135h42.199c14.134 0 25.633 11.499 25.633 25.633v274.132z"/><path d="m388.534 298.2h-126.236c-3.16-9.608-12.212-16.566-22.864-16.566s-19.704 6.959-22.863 16.566h-10.271c-4.143 0-7.5 3.358-7.5 7.5s3.357 7.5 7.5 7.5h10.27c3.16 9.608 12.212 16.567 22.863 16.567 10.652 0 19.704-6.959 22.864-16.567h126.236c4.143 0 7.5-3.358 7.5-7.5.001-4.142-3.357-7.5-7.499-7.5zm-149.1 16.567c-4.999 0-9.066-4.067-9.066-9.067 0-4.999 4.067-9.066 9.066-9.066s9.066 4.067 9.066 9.066c.001 4.999-4.067 9.067-9.066 9.067z"/><path d="m135.892 298.2h-8.283c-4.143 0-7.5 3.358-7.5 7.5s3.357 7.5 7.5 7.5h8.283c4.143 0 7.5-3.358 7.5-7.5s-3.357-7.5-7.5-7.5z"/></g></g></svg>